<?xml version="1.0" encoding="utf-8"?>
<!-- Generator: Adobe Illustrator 26.3.1, SVG Export Plug-In . SVG Version: 6.00 Build 0)  -->
<svg version="1.1" id="Layer_1" xmlns="http://www.w3.org/2000/svg" xmlns:xlink="http://www.w3.org/1999/xlink" x="0px" y="0px"
	 viewBox="0 0 411.4 153.2" style="enable-background:new 0 0 411.4 153.2;" xml:space="preserve">
<style type="text/css">
	.st0{fill-rule:evenodd;clip-rule:evenodd;fill:#AFA393;}
	.st1{fill-rule:evenodd;clip-rule:evenodd;fill:#F2A42A;}
</style>
<path class="st0" d="M273.4,94.6c0-7.5-4.3-11.5-10.7-11.5c-1.8,0-5.5,0.2-8.2,3.2c-2.5,2.8-2.6,6.5-2.6,8.7c0,1.5,0,5.6,2.7,8.5
	c2.5,2.7,5.6,3.1,7.8,3.1c2.1,0,5.5-0.4,8.1-3.2C273.2,100.4,273.4,96.6,273.4,94.6z M262.7,103.2c-2.5,0-4.1-1.1-5-2.1
	c-1.3-1.5-1.7-4-1.7-6.2c0-2.1,0.4-4.4,1.5-6c1.5-2.3,3.9-2.5,5.1-2.5c5.3,0,6.6,4.3,6.6,8.4c0,1.4,0,4.1-1.5,6.2
	C266.6,102.5,264.7,103.2,262.7,103.2L262.7,103.2z"/>
<path class="st0" d="M316.9,77c0-0.6-0.1-1.3-0.9-1.7c-0.4-0.2-0.8-0.2-0.9-0.2c-0.9,0-1.5,0.5-1.7,0.9c-0.2,0.2-0.2,0.6-0.2,0.9
	v9.5c-0.6-0.8-2.6-3.4-7.2-3.4c-6.9,0-9.4,6-9.4,11.6c0,6.2,2.8,11.9,9.6,11.9c1.9,0,3.6-0.5,5.2-1.5c0.9-0.6,1.4-1.2,1.8-1.7
	c0,1.2,0,1.5,0.1,2c0.2,0.4,0.7,0.9,1.8,0.9c1.8,0,1.9-1.3,1.9-1.9L316.9,77L316.9,77z M313.1,94.8c0,1.1,0,5.9-3.4,7.7
	c-0.9,0.5-1.9,0.7-3,0.7c-5.1,0-6-4.6-6-8.4c0-0.9,0.1-2,0.2-3c0.6-3.1,2.4-5.3,5.7-5.3c1.7,0,3.8,0.4,5.2,2.7
	C312.9,91,313.1,93,313.1,94.8L313.1,94.8z"/>
<path class="st0" d="M338.9,95.9c0.5,0,1.9-0.1,1.9-1.9c0-2.5-0.7-5.3-2.1-7.3c-1.4-1.8-3.1-2.7-5-3.2c-0.9-0.2-1.9-0.4-2.8-0.4
	c-7.7,0-10.7,6.4-10.7,11.9c0,3.2,0.9,6.3,2.8,8.5c2.3,2.5,5.1,3.1,7.9,3.1c1.2,0,5.1,0,8.1-3.4c0.6-0.5,1.3-1.5,1.4-2.3
	c0.1-0.2,0.1-0.4,0.1-0.5c0-1.3-1.3-1.9-2.3-1.9c-1.1,0-1.2,0.5-1.9,1.7c-0.8,1.2-2,3-5.5,3c-1.8,0-3.6-0.2-5-2.1
	c-1.2-1.4-1.7-3.1-1.8-5.1L338.9,95.9L338.9,95.9z M324.3,92.7c0.2-1.1,0.6-3.1,2.4-4.6c1.4-1.4,3.3-1.4,4.1-1.4
	c4.1,0,5.7,3.1,5.9,6L324.3,92.7L324.3,92.7z"/>
<path class="st0" d="M362.8,85c0-0.5-0.2-1.7-1.8-1.7c-0.9,0-1.4,0.5-1.5,0.8c-0.2,0.4-0.2,0.6-0.2,2c-0.5-0.8-1.1-1.7-2.7-2.4
	c-0.8-0.4-1.9-0.7-3.6-0.7c-4.7,0-7.9,2.7-9.1,7c-0.5,1.4-0.6,3-0.6,4.5c0,5.7,2.7,10.7,9.2,10.7c3.9,0,5.6-1.8,6.5-3v1.9
	c-0.1,3.1-0.2,6.4-5.5,6.4c-0.9,0-3.2-0.1-4.1-1.3c-0.2-0.4-0.5-0.7-0.8-1.4c-0.4-0.7-0.8-1.7-2.1-1.7c-0.8,0-2,0.6-2,1.9
	c0,1.2,1.1,3.1,2.5,4.1c1.5,1.1,3.9,1.7,6.4,1.7c3,0,5.6-0.7,7.1-2.1c1.8-1.7,2.4-3.9,2.4-8.7V85L362.8,85z M359.1,94
	c0,0.9-0.1,3.8-1.3,5.5c-0.9,1.4-2.7,2.4-4.7,2.4s-3.6-0.8-4.4-2.1c-1.1-1.3-1.4-3.4-1.4-5.5c0-1.8,0.4-3.8,1.4-5.3
	c1.4-1.9,3.3-2.4,4.7-2.4C359.1,86.5,359.1,92.8,359.1,94z"/>
<path class="st0" d="M387,94.6c0-7.5-4.3-11.5-10.7-11.5c-1.9,0-5.5,0.2-8.2,3.2c-2.5,2.8-2.6,6.5-2.6,8.7c0,1.5,0,5.6,2.7,8.5
	c2.5,2.7,5.6,3.1,7.8,3.1c2.1,0,5.3-0.4,8.1-3.2C386.7,100.4,387,96.6,387,94.6z M376.2,103.2c-2.5,0-4.1-1.1-5-2.1
	c-1.3-1.5-1.7-4-1.7-6.2c0-2.1,0.4-4.4,1.4-6c1.7-2.3,4-2.5,5.2-2.5c5.2,0,6.6,4.3,6.6,8.4c0,1.4-0.1,4.1-1.5,6.2
	C380.1,102.5,378.2,103.2,376.2,103.2L376.2,103.2z"/>
<path class="st0" d="M219.6,91.5c0-0.6,0-1.2,0.1-1.9c0.8-3.7,4.1-6.5,8.1-6.5c2.6,0,4.9,1.2,6.4,3.1c1.5-1.9,3.8-3.1,6.4-3.1
	c4,0,7.3,2.8,8.2,6.8c0,0.6,0.1,1.1,0.1,1.7v12.9c0,1.1-0.9,2-2,2s-1.9-0.9-1.9-2c0-0.1,0-0.4,0-0.5V92.2c0.1-0.4,0-0.6,0-0.8
	c0-2.5-1.9-4.4-4.4-4.4c-1.9,0-3.6,1.2-4.1,3c-0.1,0.2-0.2,0.5-0.2,0.9v13.5c0,1.1-0.9,2-2,2c-1.1,0-1.9-0.9-1.9-2V92.2
	c0-0.2,0-0.6,0-0.8c0-2.5-2-4.4-4.4-4.4c-2,0-3.7,1.2-4.1,3c-0.2,0.2-0.2,0.5-0.2,0.9v13.2c0,0.1,0,0.2,0,0.4c0,1.1-0.9,2-2,2
	s-1.9-0.9-1.9-2v-0.2L219.6,91.5L219.6,91.5z"/>
<path class="st0" d="M278.4,106.4c-0.9,0-1.7-0.7-1.9-1.7V91.4c0-2,0.7-3.8,1.9-5.2c1.5-1.9,3.8-3.1,6.4-3.1c4,0,7.3,2.8,8.2,6.8
	c0,0.6,0.1,1.1,0.1,1.7v12.9c0,1.1-0.9,2-2,2c-1.1,0-1.9-0.9-1.9-2c0-0.1,0-0.4,0-0.5V92.2c0.1-0.4,0-0.6,0-0.8
	c0-2.5-1.9-4.4-4.4-4.4c-1.9,0-3.6,1.2-4.1,3c-0.1,0.2-0.2,0.5-0.2,0.9v13.5C280.4,105.5,279.5,106.4,278.4,106.4L278.4,106.4z"/>
<path class="st0" d="M276,59.5c1.1,0,2.7,0,2.7-3c0-4.3-2.4-10.7-10.4-10.7c-7.1,0-11.5,5.2-11.5,11.9c0,5.5,3,11.7,11.5,11.7
	c2.5,0,5-0.5,7-1.9c1.3-0.9,1.7-1.9,1.7-2.8c0-1.5-1.3-2.8-2.7-2.8c-0.6,0-1.3,0.2-1.9,0.7c-0.4,0.2-0.6,0.5-0.8,0.8
	c-0.5,0.4-1.3,1.1-3.1,1.1c-0.5,0-2.1,0-3.6-1.5c-0.9-1.1-1.2-2.4-1.3-3.4H276L276,59.5z M263.6,54.8c0.5-1.4,1.2-3.9,4.6-3.9
	c1.5,0,2.8,0.5,3.7,1.7c0.5,0.8,0.6,1.5,0.8,2.3H263.6z"/>
<path class="st0" d="M289,43.3c-0.1-1.3-0.1-3.2-1.9-3.9c-0.4-0.1-0.8-0.2-1.3-0.2c-1.4,0-2.1,0.8-2.3,1.1c-0.8,0.8-0.8,2-0.8,3.1
	v3.1c-1.1,0-2.4,0-3.1,1.3c-0.1,0.2-0.1,0.6-0.1,1.1c0,1.4,0.9,2,1.1,2.1c0.7,0.2,1.3,0.2,2.1,0.2v12c0,2.6,0.1,6,5.9,6
	c1.8,0,4.7-0.1,4.7-2.7c0-0.9-0.4-2.4-2.1-2.4c-1.5,0-2.3-0.1-2.3-2V51.1c2.3,0,3.1,0,3.7-1.2c0.2-0.4,0.4-0.8,0.4-1.2
	c0-1.3-0.8-1.9-1.2-2.1c-0.6-0.2-0.9-0.2-2.8-0.2L289,43.3L289,43.3z"/>
<path class="st0" d="M295.2,65.1c0,1.4,0.1,3.3,2.3,3.9c0.5,0.1,0.8,0.2,1.2,0.2c0.8,0,1.8-0.4,2.3-0.9c0.8-0.8,0.8-2.1,0.8-3.2
	v-6.8c0.1-2.5,0.1-5.9,3.4-6.5c0.6,0,1.2,0,1.8-0.1c0.8,0,1.7-0.1,2.3-0.8c0.5-0.5,0.8-1.2,0.8-2c0-1.4-0.9-2.8-3.2-2.8
	c-1.9,0-3.7,0.8-4.6,2.5c-0.4,0.6-0.6,1.3-0.8,2v-0.6c0-0.7,0-2.6-1.7-3.4c-0.4-0.2-0.8-0.4-1.4-0.4c-0.9,0-1.7,0.5-2.1,0.8
	c-0.9,0.9-0.9,2.1-0.9,3.2V65.1L295.2,65.1z"/>
<path class="st0" d="M309.9,57.5c0,5.9,3.4,12,11.5,12c6.5,0,11.7-4.9,11.7-12c0-3.4-1.3-6.4-3-8.2c-2-2.4-5.2-3.4-8.4-3.4
	C314.8,45.9,309.9,50.5,309.9,57.5z M321.6,51c0.6,0,3,0,4.3,2.4c0.7,1.3,0.8,2.6,0.8,4c0,1.3-0.1,3.1-0.9,4.5
	c-0.4,0.6-1.5,2.4-4.1,2.4c-3.4,0-5.1-2.7-5.1-6.8c0-0.8,0-3.8,2-5.5C319.5,51,320.8,51,321.6,51L321.6,51z"/>
<path class="st0" d="M218.8,66.4c0,1.7,0.7,3.2,3.2,3.2c2.5,0,3.2-1.5,3.2-3.2V55.9c0-2.3,1.8-4.1,4-4.1c2.3,0,4,1.9,4,4.1v10.4
	c0,1.7,0.7,3.2,3.2,3.2c2.5,0,3.2-1.5,3.2-3.2V55.9c0-2.3,1.9-4.1,4.1-4.1c2.3,0,4,1.9,4,4.1v10.4c0,1.7,0.7,3.2,3.2,3.2
	c2.5,0,3.1-1.5,3.1-3.2V55.9c0-5.8-4.6-10.4-10.3-10.4c-2.8,0-5.5,1.1-7.3,3c-1.8-1.9-4.4-3-7.2-3c-5.8,0-10.4,4.6-10.4,10.4
	L218.8,66.4L218.8,66.4z"/>
<path class="st1" d="M70.2,98.4c0,4.3,1.5,7.9,7.7,7.9c6.3,0,8.2-3.7,8.2-7.9V72.3c0-5.7,4.4-10.2,10.1-10.2
	c5.7,0,10.2,4.5,10.2,10.2v26.1c0,4.3,1.7,7.9,7.9,7.9c6.2,0,7.9-3.7,7.9-7.9l0.1-26.1c0-5.7,4.6-10.2,10.2-10.2
	c5.7,0,10.2,4.5,10.2,10.2v26.1c0,4.3,1.8,7.9,7.9,7.9c6.3,0,7.9-3.7,7.9-7.9V72.3c0-14.5-11.6-26.1-26.1-26.1
	c-7.1,0-13.5,2.7-18.3,7.3c-4.6-4.6-11-7.3-18.1-7.3c-14.5,0-26,11.6-26,26.1L70.2,98.4L70.2,98.4z"/>
<path class="st1" d="M143.7,15.6c33.5,0,60.6,27.1,60.6,60.6c0,33.5-27,60.7-60.6,60.7H85c-33.4,0-60.6-27.1-60.6-60.7
	c0-33.4,27.1-60.6,60.6-60.6H143.7z M86.9,31.6h54.9c24.7,0,44.7,19.9,44.7,44.6c0,24.7-20,44.7-44.7,44.7H86.9
	c-24.7,0-44.6-20-44.6-44.7C42.3,51.5,62.2,31.6,86.9,31.6L86.9,31.6z"/>
</svg>
